<?xml version="1.0" encoding="UTF-8"?><svg id="Layer_2" xmlns="http://www.w3.org/2000/svg" viewBox="0 0 79.58 41.46"><defs><style>.cls-1{fill:none;stroke:#fff;stroke-linecap:round;stroke-linejoin:round;stroke-width:.75px;}.cls-2{opacity:.6;}</style></defs><g id="art"><g id="LNFMGX" class="cls-2"><path class="cls-1" d="M7.05,41.08c3.71-2.83,7.49-5.51,11.85-7.32,3.63-1.51,7.37-2.06,11.23-1.76,4.73.37,9.44.97,14.18,1.3,1.59.11,3.24-.16,4.81-.51,4.16-.93,8.31-1.91,12.42-3.07,2.5-.7,4.8-1.99,6.58-3.91,1.07-1.16,2.51-1.07,3.77-1.56,1.28-.49,2.65-.76,3.95-1.12-.14-1.78-1.15-2.74-3.07-3.15-1.94-.42-3.85-.12-5.77.14-2.4.32-4.82.91-7.21.78-2.73-.15-5.46-.82-8.12-1.51-3.11-.81-6.39-1.11-9.24-2.77-.8-.47-1.55-1.08-2.22-1.72-1.35-1.29-.78-2.48.79-3.2,2.44-1.12,4.93-2.16,7.25-3.51,2.27-1.32,4.38-2.98,4.59-5.95.04-.58-.13-1.44-.52-1.71-.4-.28-1.26-.17-1.81.04-5.07,1.97-10.15,3.94-15.55,4.78-2.93.46-5.81,1.01-8.54,2.17-1.77.75-3.31,1.79-4.76,3.09-2.98,2.67-5.97,5.35-9.18,7.73-1.91,1.42-4.2,2.38-6.41,3.33-1.83.79-3.79,1.28-5.69,1.9"/><path class="cls-1" d="M45.7,27.29c3.97-.31,7.89.34,11.84.45,2.08.06,4.17-.75,6.26-1.17l4.32-.86"/><path class="cls-1" d="M69.21,15.94c-1.12-1.06-2.23-1.22-3.7-.41-2.1,1.15-4.15,2.38-6.25,3.54-.85.47-1.76.84-2.64,1.26"/><path class="cls-1" d="M75.86,16.64c-.39-1.33-1.29-1.92-2.92-1.56-1.48.33-2.99.76-4.33,1.45-2.27,1.17-4.42,2.58-6.62,3.89"/><path class="cls-1" d="M69.93,19.56c-.02-.09-.08-.25-.05-.27,2.29-1.62,4.72-2.9,7.64-2.21.61.14,1.24.81,1.56,1.39.43.82-.33,1.34-.91,1.75-.78.55-1.63,1.01-2.44,1.51"/></g></g></svg>