<?xml version="1.0" encoding="UTF-8"?><svg id="Layer_2" xmlns="http://www.w3.org/2000/svg" viewBox="0 0 83.01 43.2"><defs><style>.cls-1{fill:none;opacity:.6;stroke:#fff;stroke-linecap:round;stroke-linejoin:round;stroke-width:.75px;}</style></defs><g id="art"><path class="cls-1" d="M82.63,15.14c-2.22,0-4.44.08-6.65.01-5.69-.18-11.38-.58-17.07-.59-4.83,0-8.96,1.81-12.22,5.56-2.76,3.17-5.72,6.15-9.51,8.14-1.75.92-3.6,1.7-5.2,2.83-1.38.97-2.7,1.67-4.43,1.9-2.2.29-4.35.23-6.52-.06-2.63-.35-5.25-.72-7.88-1.02-.7-.08-1.44.19-2.14.1-1.96-.27-3.91-.62-5.85-1-.36-.07-.9-.38-.96-.66-.18-.84-.75-.9-1.4-1.04-.49-.1-.98-.32-1.42-.58-1.26-.75-1.33-1.76-.29-2.84.47-.48,1.06-.97,1.25-1.56.47-1.49,1.54-2.13,2.91-2.28,2.93-.32,5.9-.41,8.82-.81,1.91-.26,3.8-.81,5.65-1.4,2.97-.95,5.42-2.8,7.71-4.86.69-.63,1.72-1.04,1.84-2.52-1.26.46-2.36.77-3.38,1.27-2.38,1.16-4.8,2.11-7.49,1.6-.97-.18-2.1-.43-2.77-1.06-1.01-.95-1.27-1.93.25-2.87.8-.49,1.81-.62,2.68-1.01,3.46-1.58,6.88-3.22,10.34-4.79,2.6-1.19,5.17-2.47,7.87-3.41,2.56-.89,5.26-.48,7.83.15,5.96,1.47,11.88,1.37,17.83.03,2.86-.65,5.72-1.33,8.58-2M10.49,32.29c-.99.92-1.82,1.98-3.06,2.7-1.47.85-1.17,2.2.56,2.86,1.68.64,3.41,1.18,5.12,1.74,2.21.73,4.46,1.37,6.65,2.16,3.28,1.18,6.66,1.16,10.06,1.01,2.91-.13,5.81-.47,8.72-.55,4.36-.11,7.93-1.93,11.27-4.56,3.14-2.47,6.1-5.16,9.93-6.69,3.38-1.35,6.81-1.76,10.32-1.24,3.2.47,6.35,1.3,9.53,1.97M29.45,32.99c-.24.48-.5.96-.72,1.45-.37.81-.72,1.69-.07,2.46.7.83,1.59,1.28,2.8,1.07,3.35-.6,6.17-2.36,9.05-4,3-1.71,6.04-3.3,9.53-3.78"/></g></svg>